<?xml version="1.0" encoding="utf-8"?>
<!-- Generator: Adobe Illustrator 23.0.1, SVG Export Plug-In . SVG Version: 6.00 Build 0)  -->
<svg version="1.1"
	 id="svg2985" inkscape:version="0.48.5 r10040" sodipodi:docname="Eurosport1.jpg" xmlns:cc="http://creativecommons.org/ns#" xmlns:dc="http://purl.org/dc/elements/1.1/" xmlns:inkscape="http://www.inkscape.org/namespaces/inkscape" xmlns:rdf="http://www.w3.org/1999/02/22-rdf-syntax-ns#" xmlns:sodipodi="http://sodipodi.sourceforge.net/DTD/sodipodi-0.dtd" xmlns:svg="http://www.w3.org/2000/svg"
	 xmlns="http://www.w3.org/2000/svg" xmlns:xlink="http://www.w3.org/1999/xlink" x="0px" y="0px" viewBox="0 0 1989.9 200"
	 enable-background="new 0 0 1989.9 200" xml:space="preserve">
<g>
	<polygon fill="#141B4D" points="171.3,196.5 106.6,153.9 6.5,196.4 65.4,127.2 0,84.3 102,84.3 171.3,3.1 171.3,84.3 270.2,84.3 
		171.3,126.4 	"/>
	<path fill="#141B4D" d="M294.1,42.7c3.5,0,6.3-2.8,6.3-6.3l0-27.2c0-3.5-2.8-6.3-6.3-6.3h-106v39.8L294.1,42.7z"/>
	<path fill="#141B4D" d="M294.1,196.9c3.5,0,6.3-2.8,6.3-6.3l0-27.2c0-3.5-2.8-6.3-6.3-6.3h-106v39.8L294.1,196.9z"/>
	<path fill="#141B4D" d="M1717,2.9h-132.5c-3.5,0-6.3,2.8-6.3,6.3v27.2c0,3.5,2.8,6.3,6.3,6.3h46.3v148.1c0,3.5,2.8,6.3,6.3,6.3
		h27.2c3.5,0,6.3-2.8,6.3-6.3V42.7h46.3c3.5,0,6.3-2.8,6.3-6.3V9.2C1723.3,5.7,1720.5,2.9,1717,2.9"/>
	<path fill="#141B4D" d="M1189.1,46.4c-3.1-8.6-7.8-16.1-13.9-22.5c-6.1-6.4-13.6-11.5-22.3-15.3c-8.7-3.8-18.6-5.7-29.5-5.7h-72.1
		c-3.5,0-6.3,2.8-6.3,6.3v181.4c0,3.5,2.8,6.3,6.3,6.3h27.2c3.5,0,6.3-2.8,6.3-6.3l0-46.5h38.5c10.8,0,20.7-1.9,29.3-5.6
		c8.6-3.7,16.1-8.8,22.2-15.2c6.1-6.4,10.8-13.8,14-22.2c3.2-8.3,4.8-18.8,4.8-28C1193.7,63.8,1192.1,54.8,1189.1,46.4 M1151.5,85.9
		c-1.4,3.8-3.5,7.1-6,9.9c-2.5,2.7-5.4,4.4-8.8,6c-3.4,1.5-9.4,2.4-21.2,2.4h-30.6V42.7h40.1c4.3,0,8.2,0.8,11.7,2.3
		c3.5,1.6,6.6,3.7,9.1,6.3c2.5,2.6,4.4,5.9,5.8,9.6c1.4,3.9,2.1,8.1,2.1,12.5C1153.7,77.9,1152.9,82,1151.5,85.9"/>
	<path fill="#141B4D" d="M918.1,58.6c-0.2,4,0.9,6.5,2.4,8.6c1.7,2.4,4.1,4.5,7.2,6.1c3.4,1.8,7.4,3.2,12,4.2c5,1.1,10.1,2.1,15.1,3
		c9.2,1.4,18.3,3.3,27,5.4c9.1,2.3,17.1,5.6,24,10c7.1,4.6,12.7,10.7,16.8,18.2c4.1,7.5,5.9,17.1,5.4,28.5
		c-0.5,11.1-3.3,20.5-8.4,28.1c-5,7.4-11.5,13.5-19.2,18c-7.6,4.4-15.1,7.7-24.3,9.4c-9.1,1.7-19.3,2.2-28.1,1.8
		c-22.1-1-54.6-13.6-71-36c-1.3-1.8-2.9-4.8,0.6-8.4c3.5-3.6,20.3-20.6,20.3-20.6c3.4-3.6,6.7-1,8.1,1c9.6,14,28.6,24.4,43.6,25.1
		c7.9,0.3,8.8,0,13.7-0.6c4.5-0.6,8.4-1.7,12.1-3.4c3.4-1.5,6.2-3.6,8.5-6.5c2.1-2.7,3.3-6.4,3.6-10.8c0.3-4.2-0.9-7.6-2.8-10.3
		c-2.1-3-5-5.2-8.5-7c-3.9-2-8.4-3.3-13.4-4.3c-5.3-1-10.6-1.9-15.8-2.6c-8.5-1.1-17-2.8-25.1-5.1c-8.4-2.4-16-5.8-22.4-10.1
		c-6.7-4.5-12.1-10.3-16-17.2c-4.1-7.1-5.9-15.2-5.5-25.4c0.5-10.3,3-19.3,7.6-26.8c4.5-7.5,10.5-13.6,17.7-18.3
		c7-4.6,15.2-7.9,24.1-10c17.4-4,34.8-3.3,52.1,2.2c18.6,5.9,33.5,20.2,40.4,30.3c1.3,1.9,2.5,4.8-0.2,7.8
		c-2.7,3-19.1,19.1-19.1,19.1c-3.5,3.4-7.2,2.6-9.2-0.4c-10.1-14.8-23.1-21.4-38.1-22.4C937,38,918.9,41.6,918.1,58.6"/>
	<path fill="#141B4D" d="M835,26.3c-9-8.6-19.5-15.1-31.4-19.6c-11.8-4.4-24.4-6.7-37.6-6.7c-13,0-25.6,2.2-37.4,6.7
		c-12,4.4-22.6,11-31.7,19.6c-9.1,8.6-16.4,19.2-21.7,31.6c-5.3,12.4-8,26.6-8,42.1c0,15.7,2.7,30,7.9,42.2
		c5.2,12.3,12.4,22.9,21.4,31.4c9,8.5,19.5,15.1,31.4,19.6c11.8,4.4,24.4,6.7,37.6,6.7c14.4,0,27.8-2.4,39.9-7.2
		c12.2-4.8,22.7-11.7,31.5-20.6c8.7-8.8,15.5-19.5,20.4-31.7c4.9-12.2,7.3-25.8,7.3-40.4c0-15.6-2.7-29.7-8-42.1
		C851.2,45.5,843.9,34.9,835,26.3 M819.1,126.9c-3.1,7.5-7.3,13.8-12.5,18.8c-5.2,5-11.4,8.9-18.3,11.4c-7,2.6-14.6,3.9-22.6,3.9
		c-8.2,0-15.9-1.3-22.9-3.9c-6.9-2.5-12.9-6.4-18-11.3c-5.1-5-9.2-11.4-12.3-18.9c-3.1-7.6-4.7-16.5-4.7-26.6s1.6-19.1,4.7-26.6
		c3.1-7.5,7.2-13.9,12.4-18.9c5.2-5,11.3-8.9,18.2-11.5c7-2.7,14.7-4,22.8-4c8,0,15.5,1.4,22.5,4c6.9,2.6,13,6.5,18.2,11.6
		c5.2,5.1,9.4,11.5,12.4,19c3.1,7.6,4.7,16.4,4.7,26.4C823.7,110.4,822.2,119.3,819.1,126.9"/>
	<path fill="#141B4D" d="M1375.2,26.3c-9-8.6-19.5-15.1-31.4-19.6c-11.8-4.4-24.4-6.7-37.6-6.7c-13,0-25.6,2.2-37.4,6.7
		c-12,4.4-22.6,11-31.7,19.6c-9.1,8.6-16.4,19.2-21.7,31.6c-5.3,12.4-8,26.6-8,42.1c0,15.7,2.7,30,7.9,42.2
		c5.2,12.3,12.4,22.9,21.4,31.4c9,8.5,19.5,15.1,31.4,19.6c11.8,4.4,24.4,6.7,37.6,6.7c14.4,0,27.8-2.4,39.9-7.2
		c12.2-4.8,22.7-11.7,31.5-20.6c8.7-8.8,15.5-19.5,20.4-31.7c4.9-12.2,7.3-25.8,7.3-40.4c0-15.6-2.7-29.7-8-42.1
		C1391.4,45.5,1384.1,34.9,1375.2,26.3 M1359.3,126.9c-3.1,7.5-7.3,13.8-12.5,18.8c-5.2,5-11.4,8.9-18.3,11.4
		c-7,2.6-14.6,3.9-22.6,3.9c-8.2,0-15.9-1.3-22.9-3.9c-6.9-2.5-12.9-6.4-18-11.3c-5.1-5-9.2-11.4-12.3-18.9
		c-3.1-7.6-4.7-16.5-4.7-26.6s1.6-19.1,4.7-26.6c3.1-7.5,7.2-13.9,12.4-18.9c5.2-5,11.3-8.9,18.2-11.5c7-2.7,14.7-4,22.8-4
		c8,0,15.5,1.4,22.5,4c6.9,2.6,13,6.5,18.2,11.6c5.2,5.1,9.4,11.5,12.4,19c3.1,7.6,4.7,16.4,4.7,26.4
		C1364,110.4,1362.4,119.3,1359.3,126.9"/>
	<path fill="#141B4D" d="M468.6,2.9h-27.3c-3.5,0-6.3,2.8-6.3,6.3v120.1c0,5.1-0.9,9.6-2.5,13.3c-1.7,3.7-4,6.9-6.9,9.4
		c-3,2.6-6.6,4.6-10.7,5.9c-4.2,1.4-11.4,2.1-16.4,2.1c-5,0-12.6-0.7-16.9-2.2c-4.2-1.4-7.9-3.4-11-6c-3-2.5-5.3-5.6-7-9.3
		c-1.7-3.7-2.5-8.2-2.5-13.3V9.2c0-3.5-2.8-6.3-6.3-6.3h-27.2c-3.5,0-6.3,2.8-6.3,6.3v121c0,11.1,2.1,21.1,6.2,29.7
		c4.1,8.6,9.8,15.9,16.9,21.9c7.1,5.9,15.4,10.5,24.7,13.5c9.2,3,19.1,4.4,29.5,4.4c10.3,0,20.1-1.5,29.3-4.4
		c9.3-3,17.5-7.6,24.5-13.5c6.9-6,12.5-13.4,16.6-21.9c4.1-8.6,6.2-18.6,6.2-29.7V9.2C474.9,5.7,472,2.9,468.6,2.9"/>
	<path fill="#141B4D" d="M660,186.3l-44.2-54.9c0,0,35.7-13,35.7-58.3c0-9.3-1.6-18.4-4.7-26.8c-3.1-8.5-7.8-16.1-13.9-22.5
		c-6.1-6.4-13.6-11.5-22.3-15.3c-8.7-3.8-18.6-5.7-29.5-5.7h-72c-3.5,0-6.3,2.8-6.3,6.3v181.4c0,3.5,2.8,6.3,6.3,6.3h27.1
		c3.5,0,6.3-2.8,6.3-6.3l0-147.9H583c4.3,0,8.2,0.8,11.7,2.3c3.5,1.5,6.6,3.7,9.1,6.3c2.5,2.6,4.4,5.9,5.8,9.6
		c1.4,3.9,2.1,8.1,2.1,12.5c0,4.4-0.7,8.6-2.2,12.4c-1.4,3.8-3.4,7.1-6,9.9c-2.5,2.7-5.4,4.4-8.8,6c-3.4,1.5-9.4,2.4-21.2,2.4h-16.9
		c-3.3,0-5.9,3-3.3,7.1l63,82.9c1.2,1.7,3.1,2.6,5.1,2.6h34.8C661.3,196.9,664.7,192.2,660,186.3"/>
	<path fill="#141B4D" d="M1580.6,186.3l-44.2-54.9c0,0,35.7-13,35.7-58.3c0-9.3-1.6-18.4-4.7-26.8c-3.1-8.5-7.8-16.1-13.9-22.5
		c-6.1-6.4-13.6-11.5-22.3-15.3c-8.7-3.8-18.6-5.7-29.5-5.7h-72c-3.5,0-6.3,2.8-6.3,6.3v181.4c0,3.5,2.8,6.3,6.3,6.3h27.1
		c3.5,0,6.3-2.8,6.3-6.3l0-147.9h40.3c4.3,0,8.2,0.8,11.7,2.3c3.5,1.5,6.6,3.7,9.1,6.3c2.5,2.6,4.4,5.9,5.8,9.6
		c1.4,3.9,2.1,8.1,2.1,12.5c0,4.4-0.7,8.6-2.2,12.4c-1.4,3.8-3.4,7.1-6,9.9c-2.5,2.7-5.4,4.4-8.8,6c-3.4,1.5-9.4,2.4-21.2,2.4h-16.9
		c-3.3,0-5.9,3-3.3,7.1l63,82.9c1.2,1.7,3.1,2.6,5.1,2.6h34.8C1581.9,196.9,1585.3,192.2,1580.6,186.3"/>
	<path fill="#D50032" d="M1983.4,200h-180.8c-3.6,0-6.5-2.9-6.5-6.5V6.5c0-3.6,2.9-6.5,6.5-6.5h180.8c3.6,0,6.5,2.9,6.5,6.5v187
		C1989.9,197.1,1987,200,1983.4,200"/>
	<path fill="#FFFFFF" d="M1915.1,35.4c0-2.5-2-4.5-4.5-4.5h-45.3c-2.5,0-4.5,2-4.5,4.5l0,19.5c0,2.7,1.7,4.6,4.3,4.6h19.4v105.2
		c0,2.5,1.8,4.5,4.3,4.5h22c2.5,0,4.3-2,4.3-4.5L1915.1,35.4z"/>
</g>
</svg>
