<?xml version="1.0" encoding="UTF-8" standalone="no"?>
<!-- Created with Inkscape (http://www.inkscape.org/) -->

<svg
   xmlns:dc="http://purl.org/dc/elements/1.1/"
   xmlns:cc="http://creativecommons.org/ns#"
   xmlns:rdf="http://www.w3.org/1999/02/22-rdf-syntax-ns#"
   xmlns:svg="http://www.w3.org/2000/svg"
   xmlns="http://www.w3.org/2000/svg"
   version="1.1"
   width="906.10999"
   height="607.03003"
   viewBox="0 0 724.88799 485.62402"
   id="svg3027">
  <metadata
     id="metadata3064">
    <rdf:RDF>
      <cc:Work
         rdf:about="">
        <dc:format>image/svg+xml</dc:format>
        <dc:type
           rdf:resource="http://purl.org/dc/dcmitype/StillImage" />
        <dc:title></dc:title>
      </cc:Work>
    </rdf:RDF>
  </metadata>
  <defs
     id="defs3062" />
  <path
     d="m 0,0 0,171.75 c 1.2498075,27.05829 3.0945585,54.17915 8.34375,80.8125 8.336216,43.85567 24.691928,87.17414 53.4375,121.84375 26.658394,32.7074 63.74364,55.87079 103.625,68.96875 43.5058,14.88519 90.88196,18.85492 136.125,10.34375 37.08179,-7.23636 72.65453,-22.97871 102.0625,-46.8125 39.15646,-31.38261 66.80188,-76.33256 78.9375,-124.875 L 374,303.28125 c 1.16231,-36.0944 2.3188,-73.16188 2.65625,-109.28125 40.66874,-9.0361 80.50476,-26.14818 111.4375,-54.59375 23.42139,-21.28419 40.66315,-50.09243 44.875,-81.75 11.51072,-1.837214 23.09551,-3.131555 34.59375,-5.09375 50.14227,-8.41119 100.16378,-18.189709 149.03125,-32.375 9.64851,23.871282 18.55729,48.085125 25.21875,72.96875 6.73646,24.74615 11.59404,50.07273 13.46875,75.65625 4.84925,95.84757 -25.82171,193.19921 -85.625,268.375 -28.37064,35.79442 -63.0435,66.62246 -102,90.46875 -57.95356,35.68195 -125.09795,55.6506 -192.9375,59.5 -29.80791,2.21215 -59.92951,0.67401 -89.1875,-5.625 -39.81886,-8.29871 -77.94931,-23.41539 -114.03125,-42 C 158.86445,532.88229 146.06696,526.3362 134.46875,517.9375 98.96172,493.40383 65.827334,464.63827 40.40625,429.53125 24.808653,408.33455 12.535877,384.965 2,360.90625 1.3625981,359.46898 0.66239797,358.01852 0,356.59375 l 0,250.4375 906.125,0 L 906.125,0 0,0 z"
     transform="matrix(0.8,0,0,0.8,0,-2.2944709e-6)"
     id="path3030"
     style="fill:#ff3801;fill-opacity:1" />
</svg>
