<?xml version="1.0" encoding="UTF-8" standalone="no"?>
<!--Created with Inkscape (http://www.inkscape.org/)-->
<svg xmlns="http://www.w3.org/2000/svg" width="378.44" height="55.737999">
  <path fill="#f57c14" d="M18.75717 18.19431c-5.158842-.006261-9.8919536 2.109866-13.2664871 5.496921C2.1098887 27.059504-.00623811 31.792616.00002262 36.957718v17.135618H14.236923V37.245712c.0063-2.05352.494598-3.806524 1.327275-5.165103.838937-1.339796 1.922044-2.134909 3.192972-2.141169 1.270928.0063 2.354035.801373 3.192972 2.141169.832677 1.358579 1.321014 3.111583 1.327275 5.165103v16.847624h14.243161V36.957718c0-5.165102-2.116127-9.898214-5.496921-13.266487-3.374533-3.387055-8.107645-5.503182-13.266487-5.496921m340.91991 0c-5.15884-.0063-9.89195 2.109866-13.26649 5.496921-3.38079 3.368273-5.49692 8.101385-5.49066 13.266487v17.135618h14.2369V37.245712c.006-2.05352.4946-3.806524 1.32728-5.165103.83894-1.339796 1.92204-2.134909 3.19297-2.141169 1.27093.0063 2.35403.801373 3.19297 2.141169.83268 1.358579 1.32102 3.111583 1.32728 5.165103v16.847624h14.24316V36.957718c0-5.165102-2.11613-9.898214-5.49692-13.266487-3.37454-3.387055-8.10765-5.503182-13.26649-5.496921M52.84496 13.58265c1.433707-1.433707 2.31647-3.412098 2.31647-5.5970927 0-2.1912555-.882763-4.1696463-2.31647-5.5970927C51.411253.95475739 49.432862.06573371 47.247867.06573371c-2.184995 0-4.163385.88902368-5.597092 2.32273089-1.433708 1.4274464-2.322731 3.4058372-2.322731 5.5970927 0 2.1849947.889023 4.1633857 2.322731 5.5970927l1.746743 1.746744c2.917501 2.923761 3.124105 3.69383.350601 6.467334l-1.590225 1.590225c-1.302232 1.308493-2.109866 3.105322-2.109866 5.096235v25.606386h14.393418V28.483188c0-1.990913-.801373-3.787742-2.103605-5.096235l-1.590226-1.583964c-2.773503-2.773504-2.566899-3.549834.350601-6.473595zm25.5131 29.35845c-.838938 1.5464-1.928305 2.466728-3.192972 2.472988-1.270929-.0063-2.360296-.926588-3.199233-2.472988-.826417-1.565183-1.321014-3.593659-1.321014-5.966476 0-2.372816.494597-4.395032 1.321014-5.966476.838937-1.5464 1.928304-2.466727 3.199233-2.472988 1.264667.0063 2.354034.926588 3.192972 2.472988.613552 1.164496 1.039281 2.579421 1.220842 4.20095h14.261944c-.419469-4.4639-2.416642-8.514593-5.409271-11.500961-3.374534-3.387055-8.113906-5.496921-13.266487-5.496921-5.158842 0-9.898215 2.109866-13.266487 5.496921-3.387055 3.374534-5.503182 8.107646-5.496921 13.266487-.0063 5.158842 2.109866 9.891954 5.496921 13.266487 2.598203 2.598203 7.11845 5.496921 13.266487 5.496921 4.614158 0 8.890236-1.696658 12.158338-4.476422 2.379077-2.022216 5.910129-6.079169 6.51742-12.52146H79.578902c-.181561 1.621529-.60729 3.036454-1.220842 4.20095m65.99123-9.3454c.25669-1.095628.60103-2.05978.93911-2.779764.63233-1.358579 1.92204-2.466728 3.19297-2.472989 1.28345.0063 2.32899.914067 3.21802 2.523075.38816.694941.7325 1.903262.90154 2.704635l-8.25164.02504zm4.13208-15.413918c-5.15884-.0063-9.89195 2.109867-13.26649 5.490661-3.38079 3.374533-5.49692 8.113906-5.49692 13.272748 0 5.158841 2.11613 9.891953 5.49692 13.266487 3.28689 3.286883 7.93861 5.49066 13.34788 5.49066 5.57205 0 10.18621-2.48551 13.29779-5.609614 3.91922-4.495204 4.10704-9.303445 4.10704-9.303445h-12.69676s-1.75926 4.432597-4.78946 4.432597c-1.27093-.0063-2.35403-.920328-3.19297-2.472989-.56973-1.070584-.97667-2.366556-1.17702-3.831566h22.10664s1.5151-9.021712-4.53277-15.125924c-3.51227-3.556095-7.98869-5.615875-13.20388-5.609615M277.66402 33.5957c.25669-1.095628.60103-2.05978.93911-2.779764.63233-1.358579 1.92204-2.466728 3.19297-2.472989 1.28345.0063 2.32899.914067 3.21802 2.523075.38816.694941.7325 1.903262.90154 2.704635l-8.25164.02504zm4.13208-15.413918c-5.15884-.0063-9.89195 2.109867-13.26649 5.490661-3.38079 3.374533-5.49692 8.113906-5.49692 13.272748 0 5.158841 2.11613 9.891953 5.49692 13.266487 3.28689 3.286883 7.93861 5.49066 13.34788 5.49066 5.57205 0 10.17995-2.48551 13.29779-5.609614 3.91922-4.495204 4.10704-9.303445 4.10704-9.303445h-12.69676s-1.75926 4.432597-4.78946 4.432597c-1.27093-.0063-2.35403-.920328-3.19297-2.472989-.56973-1.070584-.97667-2.366556-1.17702-3.831566h22.10664s1.5151-9.021712-4.53277-15.125924c-3.51227-3.556095-7.98869-5.615875-13.20388-5.609615M175.36432 0c-3.93174 0-7.11845 3.1929724-7.11845 7.1247109l.0188 46.9617361h14.24316l-.0188-46.9679969C182.48903 3.1867116 179.29606 0 175.36432 0m27.86964 45.40469c-2.49177 0-4.52025-3.781481-4.52025-8.451986 0-4.664244 2.02848-8.445725 4.52025-8.445725 2.49803 0 4.52025 3.781481 4.52025 8.445725 0 4.670505-2.02222 8.451986-4.52025 8.451986m0-27.209133c-10.36151 0-18.76341 8.395639-18.76341 18.757147 0 10.361509 8.4019 18.763408 18.76341 18.763408s18.76341-8.401899 18.76341-18.763408c0-10.361508-8.4019-18.757147-18.76341-18.757147M320.39413 45.40469c-2.49177 0-4.52025-3.781481-4.52025-8.451986 0-4.664244 2.02848-8.445725 4.52025-8.445725s4.52025 3.781481 4.52025 8.445725c0 4.670505-2.02848 8.451986-4.52025 8.451986m0-27.209133c-10.36151 0-18.76341 8.395639-18.76341 18.757147 0 10.361509 8.4019 18.763408 18.76341 18.763408s18.76341-8.401899 18.76341-18.763408c0-10.361508-8.4019-18.757147-18.76341-18.757147M242.46557 45.40469c-2.49177 0-4.52025-3.781481-4.52025-8.451986 0-4.664244 2.02848-8.445725 4.52025-8.445725 2.49803 0 4.52025 3.781481 4.52025 8.445725 0 4.670505-2.02222 8.451986-4.52025 8.451986m18.75715-8.445725.0313.01252-.0188-29.8574223c-.006-3.9317385-3.19297-7.11845012-7.12471-7.11218939-3.93174 0-7.11845 3.19297239-7.11845 7.12471089l.006 11.6449578c-1.45875-.363122-2.97385-.557205-4.53277-.557205-5.15884-.0063-9.89195 2.109866-13.26649 5.496921-3.38079 3.368273-5.49692 8.107646-5.49066 13.260227-.006 5.158841 2.10987 9.898214 5.49066 13.266487 2.15995 2.172473 6.79916 5.503181 13.26649 5.496921 6.47359.0063 11.10654-3.324448 13.26649-5.496921 3.38079-3.368273 5.49692-8.107646 5.49692-13.266487 0-.0063-.006-.01252-.006-.01252"/>
  <path fill="#f57c14" d="M131.78588 51.60219c0-.475815-.144-.920327-.37564-1.295971l-7.80087-11.795216 5.40301-9.804303c1.99717-3.387055.87024-7.757045-2.51682-9.754217-3.38705-1.997173-7.75704-.870242-9.75421 2.523074l-6.44856 11.526004v-7.688177c0-3.931738-3.18671-7.11845-7.11845-7.11845-3.931735 0-7.124707 3.186712-7.124707 7.11845v28.780577h14.243157V42.824646l7.51288 11.263054 11.50096-.0063c1.3711 0 2.47925-1.108149 2.47925-2.479249"/>
</svg>