<svg xmlns="http://www.w3.org/2000/svg" xmlns:xlink="http://www.w3.org/1999/xlink" id="svg2409" version="1.0" viewBox="0 0 1181 206.5"><defs id="defs2411"><linearGradient id="linearGradient4445"><stop id="stop4447" offset="0" style="stop-color:#001932;stop-opacity:.196078;--darkreader-inline-stopcolor:#d8d5d0"/><stop id="stop4449" offset="1" style="stop-color:#00324b;stop-opacity:0;--darkreader-inline-stopcolor:#d0ccc6"/></linearGradient><linearGradient id="linearGradient4335"><stop id="stop4337" offset="0" style="stop-color:#000;stop-opacity:.196078;--darkreader-inline-stopcolor:#e8e6e3"/><stop id="stop4339" offset="1" style="stop-color:#640032;stop-opacity:.196078;--darkreader-inline-stopcolor:#c8c4bd"/></linearGradient><linearGradient id="linearGradient4319"><stop style="stop-color:#c80000;stop-opacity:.196078;--darkreader-inline-stopcolor:#ff4040" offset="0" id="stop4321"/><stop style="stop-color:#c80000;stop-opacity:.0980392;--darkreader-inline-stopcolor:#ff4040" offset="1" id="stop4323"/></linearGradient><linearGradient id="linearGradient4311"><stop style="stop-color:#001932;stop-opacity:.392157;--darkreader-inline-stopcolor:#d8d5d0" offset="0" id="stop4313"/><stop style="stop-color:#00324b;stop-opacity:.196078;--darkreader-inline-stopcolor:#d0ccc6" offset="1" id="stop4315"/></linearGradient><linearGradient id="linearGradient4301"><stop style="stop-color:#fdba0d;stop-opacity:1;--darkreader-inline-stopcolor:#fdc023" offset="0" id="stop4303"/><stop style="stop-color:#ffd502;stop-opacity:1;--darkreader-inline-stopcolor:#ffd91b" offset="1" id="stop4305"/></linearGradient><linearGradient id="linearGradient4293"><stop style="stop-color:#025984;stop-opacity:1;--darkreader-inline-stopcolor:#70cefd" offset="0" id="stop4295"/><stop style="stop-color:#007ba3;stop-opacity:1;--darkreader-inline-stopcolor:#5ad6ff" offset="1" id="stop4297"/></linearGradient><linearGradient xlink:href="#linearGradient4293" id="linearGradient4299" x1="1574.667" y1="-326.5" x2="2362" y2="-326.5" gradientUnits="userSpaceOnUse" gradientTransform="matrix(.5 0 0 .5 0 -60)"/><linearGradient xlink:href="#linearGradient4301" id="linearGradient4307" x1="787.333" y1="-326.5" x2="1574.667" y2="-326.5" gradientUnits="userSpaceOnUse" gradientTransform="matrix(.5 0 0 .5 0 -60)"/><linearGradient xlink:href="#linearGradient4311" id="linearGradient4317" x1="1831.149" y1="-193" x2="2235.391" y2="-193" gradientUnits="userSpaceOnUse" gradientTransform="matrix(.5 0 0 .5 0 -60)"/><linearGradient xlink:href="#linearGradient4319" id="linearGradient4325" x1="1433.908" y1="-120" x2="1433.908" y2="-464" gradientUnits="userSpaceOnUse" gradientTransform="matrix(.5 0 0 .5 0 -60)"/><linearGradient xlink:href="#linearGradient4335" id="linearGradient4333" x1="127.252" y1="-273.246" x2="787.334" y2="-273.246" gradientUnits="userSpaceOnUse" gradientTransform="matrix(.5 0 0 .5 0 -60)"/><linearGradient xlink:href="#linearGradient4445" id="linearGradient4443" x1="972.649" y1="-189.136" x2="1074.867" y2="-189.136" gradientUnits="userSpaceOnUse"/><clipPath id="XMLID_33_"><use id="use14" x="0" y="0" width="587" height="161" xlink:href="#XMLID_24_"/></clipPath><clipPath id="XMLID_34_"><use xlink:href="#XMLID_23_" height="161" width="587" y="0" x="0" id="use22"/></clipPath><clipPath id="XMLID_35_"><use id="use30" x="0" y="0" width="587" height="161" xlink:href="#XMLID_22_"/></clipPath><clipPath id="XMLID_36_"><use xlink:href="#XMLID_21_" height="161" width="587" y="0" x="0" id="use38"/></clipPath><defs id="defs10"><path id="XMLID_24_" d="M0 0h737.343v365.832H0z"/></defs><defs id="defs18"><path id="XMLID_23_" d="M0 0h737.343v365.832H0z"/></defs><defs id="defs26"><path id="XMLID_22_" d="M0 0h737.343v365.832H0z"/></defs><defs id="defs34"><path id="XMLID_21_" d="M32.162 78.613v160.349h586.477V78.613"/></defs><filter style="color-interpolation-filters:sRGB" id="filter4483" x="-.007" width="1.014" y="-.053" height="1.105"><feGaussianBlur stdDeviation="2.974" id="feGaussianBlur4485"/></filter><style id="style6" type="text/css">.fil9{fill:none;fill-rule:nonzero}.fil4{fill:#1f1a17}.fil3{fill:#255393}.fil1{fill:#b63546}.fil2{fill:#e2ac19}.fil0,.fil8{fill:#fff}.fil8{fill-rule:nonzero}.fil5,.fil6,.fil7{fill:#235598;fill-rule:nonzero}.fil6,.fil7{fill:#bd4748}.fil7{fill:#edac2f}</style></defs><g id="layer1" transform="translate(0 326.5)"><path style="opacity:1;fill:url(#linearGradient4299);fill-opacity:1;stroke:none;stroke-width:1px;stroke-linecap:butt;stroke-linejoin:miter;stroke-miterlimit:4;stroke-dasharray:none;stroke-dashoffset:0;stroke-opacity:1;--darkreader-inline-stroke:none" id="rect4229" d="M787.333-326.5H1181V-120H787.333z"/><path style="fill:url(#linearGradient4443);fill-rule:evenodd;stroke:none;stroke-width:1px;stroke-linecap:butt;stroke-linejoin:miter;stroke-opacity:1;fill-opacity:1;--darkreader-inline-stroke:none" d="M1040.816-173.933 922.14-183.45 972.65-292Z" id="path4435"/><path style="opacity:1;fill:#e60d38;fill-opacity:1;stroke:none;stroke-width:1px;stroke-linecap:butt;stroke-linejoin:miter;stroke-miterlimit:4;stroke-dasharray:none;stroke-dashoffset:0;stroke-opacity:1;--darkreader-inline-fill:#f32e55;--darkreader-inline-stroke:none" id="rect4225" d="M0-326.5h393.667V-120H0z"/><path id="rect4227" style="opacity:1;fill:url(#linearGradient4307);fill-opacity:1;stroke:none;stroke-width:1px;stroke-linecap:butt;stroke-linejoin:miter;stroke-miterlimit:4;stroke-dasharray:none;stroke-dashoffset:0;stroke-opacity:1;--darkreader-inline-stroke:none" d="M393.667-326.5h393.667V-120H393.667z"/><path style="fill:url(#linearGradient4317);fill-opacity:1;fill-rule:evenodd;stroke:none;stroke-width:1px;stroke-linecap:butt;stroke-linejoin:miter;stroke-opacity:1;--darkreader-inline-stroke:none" d="M972.65-292 858.5-156.5l11.86 36.5h297.565l-50.23-69.136-76.879 15.203-118.676-9.517Z" id="path4248"/><path style="opacity:1;fill:url(#linearGradient4325);fill-opacity:1;stroke:none;stroke-width:1px;stroke-linecap:butt;stroke-linejoin:miter;stroke-miterlimit:4;stroke-dasharray:none;stroke-dashoffset:0;stroke-opacity:1;--darkreader-inline-stroke:none" d="M716.954-292 461-259.365 483.073-120h304.26v-75.13L716.954-292Z" id="rect4265"/><path style="opacity:1;fill:url(#linearGradient4333);fill-opacity:1;stroke:none;stroke-width:1px;stroke-linecap:butt;stroke-linejoin:miter;stroke-miterlimit:4;stroke-dasharray:none;stroke-dashoffset:0;stroke-opacity:1;--darkreader-inline-stroke:none" d="m310.994-273.246-189.62 3.38-57.748 113.361L71.385-120h322.282v-39.656z" id="rect4288"/><path style="fill:#000;fill-opacity:.196078;fill-rule:evenodd;filter:url(#filter4483);--darkreader-inline-fill:#e8e6e3" d="M277.395-292c-.357-.001-.714.003-1.072.013H63.626v135.482h100.35v-44.513h19.632l51.273 44.518h107.245l-65.803-46.966c23.253.625 42.903-20.326 42.525-44.583-.348-23.716-19.021-43.886-41.453-43.951ZM461-292v32.635h75.988V-156.5h105.434v-102.865h74.532V-292H461Zm397.5 0v135.5h259.195v-32.636H972.65V-292H858.5zm-694.523 32.075h46.966c6.508 0 12.423 6.336 12.423 14.152 0 7.81-5.91 14.143-12.414 14.15l-46.975.062v-28.364z" id="path4213"/><path id="path4469" d="M277.395-292c-.357-.001-.714.003-1.072.013H63.626v135.482h100.35v-44.513h19.632l51.273 44.518h107.245l-65.803-46.966c23.253.625 42.903-20.326 42.525-44.583-.348-23.716-19.021-43.886-41.453-43.951ZM461-292v32.635h75.988V-156.5h105.434v-102.865h74.532V-292H461Zm397.5 0v135.5h259.195v-32.636H972.65V-292H858.5zm-694.523 32.075h46.966c6.508 0 12.423 6.336 12.423 14.152 0 7.81-5.91 14.143-12.414 14.15l-46.975.062v-28.364z" style="fill:#fff;fill-opacity:1;fill-rule:evenodd;--darkreader-inline-fill:#e8e6e3"/></g></svg>