<svg id="logo_full" xmlns="http://www.w3.org/2000/svg" viewBox="0 0 418.1 323.6" class="hoo">
  <style>
    .st0{fill:#00bcf6}
    .name { transition: opacity 0.2s ease-out; }
    .logo { transition: all 0.2s ease-out; transform-origin: top center; }
    .small .logo { transform: scale(1.462); }
    .small .name { opacity: 0; }
  </style>
  <g id="name" class="name">
    <path class="st0" d="M32.6 255.1c11.8 0 20.4 6.5 20.4 17.9 0 8.6-3.9 15.1-11.9 17.4v.2c4.5 1 7.6 3 9.2 8.3.8 2.4 1.2 5.9 1.3 10.1.4 8.1 1.3 11.6 3.7 14.7h-10c-1.2-1.2-1.5-3.7-1.6-5.3l-.4-8.2c0-.9-.7-6.5-2.1-10.2-1.4-3.6-4.7-5.7-9.5-5.7H9.1v29.3H0v-68.5h32.6zm-4.1 31.6c10.1 0 15.4-3.6 15.4-12.2 0-7.5-4.5-11.7-12-11.7H9.1v23.9h19.4zM109.5 255.1v7.7H86.6v60.8h-9.1v-60.8H54.7v-7.7h54.8zM123.3 255.1V316h36.3v7.7h-45.4v-68.5h9.1zM226.1 255.1v15.4L194 306.1h33.7v17.6h-61.2v-16.5l31.9-34.4h-30v-17.6h57.7zM252.1 255.1l8.3 42.3h.2l8.3-42.3h18.6l8.1 42.9h.2l8.5-42.9h20.8l-19.2 68.5h-20.5l-7.4-41.7h-.2l-7.2 41.7H250l-18.6-68.5h20.7zM387.2 255.1v17.6h-35.6v8.5h32.3v16.3h-32.3v8.5h36.7v17.6h-57.8v-68.5h56.7zM418.1 255.1v68.5H397v-68.5h21.1z"/>
  </g>
  <g id="logo" class="logo">
    <g id="bars" class="bars">
      <path class="st0" d="M200.5 69.7l-34 6.6v85l34-6.6zM217.5 66.4v85l34-6.6v-85z"/>
    </g>
    <g id="border" class="border">
      <path class="st0" d="M132.5 34h85V0h-119v221.1h68v-34h-34zM251.5 0v34h34.1v153.1h-85.1v34h119.1V0z"/>
    </g>
  </g>
</svg>
