<?xml version="1.0" encoding="UTF-8" standalone="no"?>
<svg
   xmlns:dc="http://purl.org/dc/elements/1.1/"
   xmlns:cc="http://creativecommons.org/ns#"
   xmlns:rdf="http://www.w3.org/1999/02/22-rdf-syntax-ns#"
   xmlns:svg="http://www.w3.org/2000/svg"
   xmlns="http://www.w3.org/2000/svg"
   viewBox="0 0 542.06665 122.24"
   height="122.24"
   width="542.06665"
   xml:space="preserve"
   id="svg2"
   version="1.1"><metadata
     id="metadata8"><rdf:RDF><cc:Work
         rdf:about=""><dc:format>image/svg+xml</dc:format><dc:type
           rdf:resource="http://purl.org/dc/dcmitype/StillImage" /></cc:Work></rdf:RDF></metadata><defs
     id="defs6" /><g
     transform="matrix(1.3333333,0,0,-1.3333333,0,122.24)"
     id="g10"><g
       transform="scale(0.1)"
       id="g12"><path
         id="path14"
         style="fill:#8cd024;fill-opacity:1;fill-rule:nonzero;stroke:none"
         d="m 991.262,731.965 c -80.918,0 -146.516,-65.606 -146.516,-146.524 V 313.879 C 844.746,147.297 709.688,12.2188 543.086,12.2188 H 86.1875 C 38.5898,12.2188 0,50.8125 0,98.4063 0,146.008 38.5898,184.602 86.1875,184.602 H 525.836 c 80.926,0 146.523,65.625 146.523,146.543 v 271.523 c 0,166.605 135.059,301.684 301.661,301.684 h 215.49 c 47.6,0 86.19,-38.594 86.19,-86.192 0,-47.597 -38.59,-86.195 -86.19,-86.195 H 991.262" /><path
         id="path16"
         style="fill:#8cd024;fill-opacity:1;fill-rule:nonzero;stroke:none"
         d="m 1534.27,916.539 c -47.6,0 -86.19,-38.594 -86.19,-86.191 V 86.2227 c 0,-47.6016 38.59,-86.19145 86.19,-86.19145 47.6,0 86.19,38.58985 86.19,86.19145 V 830.348 c 0,47.597 -38.59,86.191 -86.19,86.191" /><path
         id="path18"
         style="fill:#8cd024;fill-opacity:1;fill-rule:nonzero;stroke:none"
         d="m 4035.91,151.238 -351.68,307.168 351.66,307.153 c 35.94,31.234 39.74,85.675 8.51,121.605 -31.23,35.918 -85.68,39.727 -121.6,8.496 L 3553.21,572.844 3183.62,895.66 c -35.93,31.231 -90.37,27.422 -121.6,-8.496 -31.23,-35.93 -27.42,-90.371 8.52,-121.605 L 3422.2,458.406 3070.52,151.238 c -35.92,-31.226 -39.73,-85.6638 -8.5,-121.5974 31.23,-35.91794 85.67,-39.7304 121.6,-8.4961 L 3553.21,343.977 3922.82,21.1445 c 35.92,-31.2343 90.37,-27.42184 121.58,8.4961 31.23,35.9336 27.43,90.3714 -8.49,121.5974" /><path
         id="path20"
         style="fill:#8cd024;fill-opacity:1;fill-rule:nonzero;stroke:none"
         d="m 2839.21,151.238 -351.68,307.168 351.66,307.153 c 35.94,31.234 39.75,85.675 8.52,121.605 -31.24,35.918 -85.69,39.727 -121.61,8.496 L 2356.51,572.844 1986.92,895.66 c -35.93,31.231 -90.37,27.422 -121.6,-8.496 -31.23,-35.93 -27.42,-90.371 8.52,-121.605 L 2225.5,458.406 1873.82,151.238 c -35.92,-31.226 -39.73,-85.6638 -8.5,-121.5974 31.23,-35.91794 85.67,-39.7304 121.6,-8.4961 L 2356.51,343.977 2726.12,21.1445 c 35.92,-31.2343 90.37,-27.42184 121.59,8.4961 31.23,35.9336 27.42,90.3714 -8.5,121.5974" /></g></g></svg>