<svg width="142" height="36" viewBox="0 0 142 36" xmlns="http://www.w3.org/2000/svg">
    <g fill="#000" fill-rule="evenodd">
        <path d="M135.475.001a10.641 10.641 0 0 1-10.081 7.282l-1.32 5.176h6.227l-4.44 16.548h7.409L141.142 0l-5.667.001M123.204 7.283h-8.659L116.496 0h-5.595l-7.769 29.006h5.595l4.428-16.547h8.665zM98.826 7.283c-6.454 0-9.138 3.34-10.906 9.967l-3.154 11.757h5.595l3.122-11.757c.665-2.482 2.255-4.79 5.343-4.79h6.578l1.36-5.177h-7.938zM80.148 16.793l-.812 3.034c-.571 2.132-2.462 4.002-5.095 4.002h-7.98c-3.684 0-3.275-3.357-3.01-4.332l.813-3.034c.571-2.132 2.549-4.002 5.095-4.002h7.98c3.684 0 3.275 3.357 3.01 4.332m-3.01-9.51h-7.98a10.635 10.635 0 0 0-10.248 7.84l-.812 3.034c-1.24 4.586-.093 10.85 8.161 10.85h7.981c5.108 0 8.998-3.224 10.247-7.84l.813-3.033c1.24-4.587-.036-10.851-8.162-10.851M50.79 16.793l-.813 3.034c-.57 2.132-2.461 4.002-5.094 4.002H34.38l3.045-11.368h10.356c3.683 0 3.275 3.357 3.009 4.332m-3.009-9.51H33.217l-7.664 28.614h5.595l1.846-6.89h11.889c5.108 0 8.997-3.224 10.247-7.84l.813-3.033c1.239-4.587-.037-10.851-8.162-10.851M0 29.007l1.387-5.178H19.78c.872 0 1.681-.71 1.804-1.584a1.49 1.49 0 0 0-.341-1.186 1.293 1.293 0 0 0-.988-.453H8.49c-1.806 0-3.376-.687-4.421-1.935-1.045-1.248-1.45-2.919-1.13-4.705.731-4.09 4.182-6.683 7.866-6.683H30.04l-1.387 5.178H10.007c-.807 0-1.545.65-1.794 1.583-.101.375-.024.754.215 1.067.255.331.656.53 1.074.53H21.33c1.81 0 3.38.688 4.42 1.938 1.043 1.252 1.404 2.924 1.106 4.724-.67 4.043-3.806 6.704-7.935 6.704H0z"/>
    </g>
</svg>
